<?xml version="1.0" encoding="UTF-8" standalone="no"?>
<!DOCTYPE svg PUBLIC "-//W3C//DTD SVG 1.1//EN" "http://www.w3.org/Graphics/SVG/1.1/DTD/svg11.dtd">
<svg xmlns="http://www.w3.org/2000/svg" version="1.1"  viewBox="0 0 100 100" width="200" height="200">
<path fill="#ffffff" d="M 49.22 100 l 0 -1 h 0.08 l 0 1 Z m 1.51 -1 h 0.09 v 1 h -0.08 Z m -3 1 l 0 -1 h 0.08 l 0 1 Z m 4.52 -1 h 0.09 l 0 1 h -0.08 Z m -6 0.91 l 0.07 -1 h 0.09 l -0.08 1 Z m 7.54 -1 h 0.08 l 0.07 1 h -0.08 Z m -9.06 0.86 l 0.11 -1 h 0.08 l -0.11 1 Z m 10.55 -1 h 0.08 l 0.11 1 h -0.09 Z m -12.06 0.82 l 0.13 -1 h 0.09 l -0.14 1 Z m 13.54 -1 h 0.08 l 0.14 1 h -0.08 Z m -15 0.77 l 0.16 -1 h 0.09 l -0.17 1 Z m 16.53 -1 h 0.08 l 0.17 1 h -0.09 Z m -18 0.71 l 0.2 -1 l 0.08 0 l -0.2 1 Z m 19.5 -1 l 0.08 0 l 0.19 1 l -0.08 0 Z m -21 0.66 l 0.23 -1 l 0.08 0 l -0.23 1 Z m 22.45 -1 l 0.08 0 l 0.22 1 l -0.07 0 Z m -23.93 0.6 l 0.26 -1 l 0.07 0 l -0.25 1 Z m 25.38 -1 l 0.08 0 l 0.25 1 l -0.07 0 Z m -26.85 0.55 L 36 97 l 0.08 0 l -0.29 1 Z M 64 97 l 0.08 0 l 0.28 1 l -0.08 0 Z m -29.75 0.5 l 0.32 -1 l 0.08 0 l -0.31 1 Z m 31.17 -1 l 0.08 0 l 0.32 1 l -0.08 0 Z M 32.8 97 l 0.35 -1 l 0.08 0 l -0.34 1 Z m 34 -0.94 l 0.08 0 l 0.34 1 l -0.08 0 Z m -35.45 0.39 l 0.38 -0.93 l 0.07 0 l -0.37 0.93 Z m 36.85 -0.92 l 0.08 0 l 0.37 0.94 l -0.08 0 Z M 30 95.84 l 0.4 -0.93 l 0.08 0 l -0.4 0.92 Z m 39.63 -0.92 l 0.08 0 l 0.4 0.93 l -0.08 0 Z m -41 0.28 l 0.43 -0.9 l 0.07 0 l -0.43 0.91 Z M 71 94.29 l 0.08 0 l 0.43 0.91 l -0.08 0 Z m -43.74 0.24 l 0.46 -0.89 l 0.07 0 l -0.45 0.9 Z m 45.09 -0.9 l 0.07 0 l 0.46 0.9 l -0.08 0 Z m -46.43 0.19 l 0.48 -0.88 l 0.08 0 l -0.49 0.88 Z m 47.76 -0.9 l 0.06 0 l 0.48 0.88 l -0.07 0 Z m -49.08 0.14 l 0.51 -0.86 l 0.07 0 l -0.51 0.87 Z m 50.37 -0.87 l 0.07 0 l 0.51 0.87 l -0.07 0 Z m -51.67 0.08 l 0.54 -0.85 l 0.07 0 l -0.54 0.85 Z m 52.94 -0.87 l 0.07 0 l 0.54 0.85 l -0.07 0 Z M 22 91.43 l 0.56 -0.83 l 0.07 0.05 l -0.57 0.83 Z m 55.46 -0.85 l 0.07 0 l 0.57 0.83 l -0.07 0 Z m -56.71 0 l 0.59 -0.82 l 0.06 0.05 l -0.58 0.82 Z m 57.94 -0.83 l 0.06 0 l 0.6 0.81 l -0.07 0.05 Z m -59.16 -0.08 l 0.61 -0.8 l 0.07 0.05 l -0.62 0.8 Z m 60.36 -0.82 l 0.06 0 l 0.62 0.8 l -0.07 0 Z M 18.33 88.7 l 0.64 -0.78 L 19 88 l -0.64 0.77 Z m 62.73 -0.8 l 0.06 -0.05 l 0.64 0.77 l -0.07 0.06 Z m -63.89 -0.18 l 0.66 -0.76 l 0.06 0.06 l -0.66 0.75 Z m 65 -0.79 l 0.06 -0.05 l 0.66 0.76 l -0.06 0 Z M 16 86.7 l 0.69 -0.74 l 0.06 0.06 l -0.68 0.74 Z m 67.28 -0.77 l 0.06 -0.05 l 0.69 0.74 l -0.07 0 Z m -68.38 -0.28 l 0.71 -0.72 l 0.06 0.06 l -0.71 0.72 Z m 69.46 -0.75 l 0.06 -0.06 l 0.71 0.72 l -0.06 0.06 Z m -70.53 -0.34 l 0.73 -0.7 l 0.06 0.07 l -0.73 0.69 Z m 71.58 -0.72 l 0 -0.06 l 0.73 0.69 l -0.06 0.06 Z m -72.62 -0.4 l 0.75 -0.67 l 0.06 0.06 l -0.75 0.68 Z m 73.63 -0.7 l 0.06 -0.06 l 0.75 0.67 l -0.06 0.06 Z m -74.63 -0.45 l 0.77 -0.65 l 0.05 0.07 l -0.76 0.65 Z m 75.61 -0.67 l 0.06 -0.07 l 0.77 0.65 l -0.06 0.07 Z m -76.58 -0.51 l 0.79 -0.62 l 0 0.06 l -0.78 0.63 Z m 77.53 -0.65 l 0.05 -0.06 l 0.79 0.62 l 0 0.07 Z M 9.92 79.91 l 0.81 -0.61 l 0 0.07 L 10 80 Z m 79.37 -0.63 l 0 -0.07 l 0.81 0.6 l -0.05 0.07 Z M 9 78.67 l 0.82 -0.58 l 0.05 0.07 l -0.83 0.58 Z m 81.14 -0.6 l 0 -0.07 l 0.83 0.58 l -0.05 0.06 Z m -82 -0.66 L 9 76.85 l 0.05 0.08 l -0.85 0.55 Z M 91 76.83 l 0 -0.07 l 0.84 0.55 l 0 0.08 Z M 7.35 76.12 l 0.86 -0.53 l 0 0.07 l -0.86 0.53 Z m 84.45 -0.55 l 0 -0.07 l 0.86 0.53 l 0 0.07 Z M 6.57 74.8 l 0.87 -0.5 l 0 0.08 l -0.88 0.5 Z m 86 -0.51 l 0 -0.07 l 0.88 0.5 l 0 0.07 Z M 5.83 73.47 L 6.72 73 l 0 0.08 l -0.89 0.47 Z M 93.28 73 l 0 -0.07 l 0.89 0.47 l 0 0.08 Z M 5.14 72.11 l 0.9 -0.45 l 0 0.08 l -0.91 0.44 Z M 94 71.66 l 0 -0.08 l 0.9 0.45 l 0 0.07 Z M 4.48 70.73 l 0.92 -0.42 l 0 0.07 l -0.92 0.42 Z m 90.12 -0.42 l 0 -0.07 l 0.91 0.41 l 0 0.08 Z m -90.73 -1 l 0.92 -0.38 l 0 0.07 l -0.93 0.39 Z M 95.2 69 l 0 -0.08 l 0.93 0.39 l 0 0.08 Z m -91.9 -1 l 0.94 -0.35 l 0 0.07 L 3.33 68 Z m 92.45 -0.33 l 0 -0.08 l 0.94 0.36 l 0 0.08 Z m -93 -1.1 l 1 -0.33 l 0 0.08 l -1 0.33 Z m 93.5 -0.31 l 0 -0.07 l 1 0.33 l 0 0.08 Z M 2.29 65 l 1 -0.29 l 0 0.08 l -1 0.3 Z m 94.45 -0.26 l 0 -0.08 l 1 0.3 l 0 0.08 Z M 1.85 63.55 l 1 -0.27 l 0 0.08 l -1 0.28 Z m 95.32 -0.24 l 0 -0.08 l 1 0.27 l 0 0.09 Z M 1.46 62.08 l 1 -0.24 l 0 0.08 l -1 0.24 Z m 96.09 -0.21 l 0 -0.08 l 1 0.24 l 0 0.08 Z M 1.12 60.59 l 1 -0.21 l 0 0.08 l -1 0.22 Z m 96.77 -0.18 l 0 -0.08 l 1 0.22 l 0 0.08 Z M 0.82 59.1 l 1 -0.18 l 0 0.08 l -1 0.18 Z M 98.18 59 l 0 -0.08 l 1 0.18 l 0 0.08 Z M 0.57 57.6 l 1 -0.16 l 0 0.09 l -1 0.15 Z m 97.86 -0.12 v -0.09 l 1 0.15 v 0.09 Z M 0.36 56.09 l 1 -0.13 v 0.09 l -1 0.12 Z M 98.63 56 v -0.09 l 1 0.12 v 0.09 Z M 0.2 54.57 l 1 -0.09 v 0.08 l -1 0.09 Z m 98.59 -0.06 v -0.08 l 1 0.09 v 0.08 Z M 0.09 53.05 l 1 -0.06 v 0.08 l -1 0.06 Z m 98.82 0 v -0.08 l 1 0.06 v 0.08 Z M 0 51.52 l 1 0 v 0.09 l -1 0 Z m 99 0 v -0.09 l 1 0 v 0.09 Z m 0 -3.07 l 1 0 v 0.09 l -1 0 Z M 0 48.49 v -0.08 l 1 0 v 0.09 Z M 98.9 47 l 1 -0.06 V 47 l -1 0 Z M 0.09 47 v -0.08 l 1 0.06 V 47 Z m 98.7 -1.5 l 1 -0.09 v 0.08 l -1 0.1 Z M 0.2 45.45 v -0.09 l 1 0.1 v 0.08 Z M 98.63 44 l 1 -0.13 V 44 l -1 0.12 Z M 0.36 43.94 v -0.09 l 1 0.12 v 0.08 Z m 98.07 -1.43 l 1 -0.16 l 0 0.09 l -1 0.15 Z M 0.57 42.42 v -0.08 l 1 0.15 v 0.09 Z M 98.18 41 l 1 -0.18 v 0.08 l -1 0.18 Z M 0.82 40.92 v -0.08 l 1 0.18 v 0.08 Z m 97.06 -1.35 l 1 -0.22 l 0 0.09 l -1 0.21 Z M 1.12 39.42 v -0.08 l 1 0.22 l 0 0.08 Z m 96.43 -1.31 l 1 -0.24 l 0 0.08 l -1 0.24 Z M 1.46 37.94 l 0 -0.08 l 1 0.24 l 0 0.08 Z m 95.7 -1.27 l 1 -0.28 l 0 0.09 l -1 0.27 Z M 1.85 36.46 l 0 -0.08 l 1 0.28 l 0 0.08 Z m 94.88 -1.22 l 1 -0.31 l 0 0.08 l -1 0.31 Z M 2.28 35 l 0 -0.08 l 1 0.31 l 0 0.08 Z m 94 -1.19 l 0.95 -0.33 l 0 0.08 l -0.95 0.33 Z m -93.5 -0.26 l 0 -0.08 l 1 0.33 l 0 0.09 Z m 93 -1.14 l 0.94 -0.37 l 0 0.08 l -0.94 0.36 Z M 3.29 32.12 l 0 -0.08 l 0.94 0.36 l 0 0.08 Z m 0.56 -1.41 l 0 -0.08 l 0.93 0.39 l 0 0.08 Z M 95.18 31 l 0.93 -0.39 l 0 0.07 l -0.93 0.39 Z M 4.46 29.31 l 0 -0.07 l 0.91 0.42 l 0 0.07 Z m 90.12 0.33 l 0.92 -0.41 l 0 0.07 l -0.91 0.42 Z M 5.11 27.94 l 0 -0.07 l 0.9 0.44 l 0 0.08 Z m 88.83 0.35 l 0.9 -0.44 l 0 0.07 l -0.9 0.45 Z M 5.8 26.59 l 0 -0.08 l 0.89 0.48 l 0 0.07 Z M 93.25 27 l 0.89 -0.47 l 0 0.07 l -0.89 0.47 Z M 6.54 25.25 l 0 -0.07 l 0.87 0.5 l 0 0.07 Z m 86 0.4 l 0.87 -0.5 l 0 0.07 l -0.87 0.5 Z M 7.31 23.94 l 0.05 -0.07 l 0.85 0.53 l 0 0.07 Z m 84.45 0.42 l 0.86 -0.52 l 0 0.07 l -0.86 0.53 Z M 8.13 22.66 l 0 -0.07 l 0.84 0.55 l 0 0.07 Z M 91 23.1 l 0.84 -0.55 l 0 0.07 l -0.84 0.55 Z M 9 21.4 l 0 -0.07 l 0.82 0.58 l 0 0.06 Z m 81.14 0.47 l 0.82 -0.58 l 0 0.07 l -0.82 0.57 Z M 9.87 20.16 l 0.05 -0.07 l 0.81 0.61 l -0.05 0.06 Z m 79.37 0.5 l 0.81 -0.61 l 0 0.07 l -0.81 0.6 Z M 10.8 19 l 0 -0.06 l 0.79 0.62 l -0.05 0.07 Z m 77.53 0.52 l 0.78 -0.63 l 0.06 0.07 l -0.79 0.63 Z m -76.57 -1.7 l 0.06 -0.06 l 0.77 0.65 l -0.06 0.06 Z m 75.62 0.55 l 0.76 -0.66 l 0.06 0.07 l -0.77 0.65 Z m -74.62 -1.7 l 0.06 -0.06 l 0.75 0.67 l -0.06 0.07 Z m 73.63 0.57 l 0.75 -0.67 l 0.06 0.06 l -0.75 0.67 Z M 13.8 15.5 l 0.06 -0.06 l 0.72 0.7 l -0.05 0.06 Z m 71.58 0.6 l 0.72 -0.7 l 0.06 0.06 l -0.73 0.7 Z M 14.87 14.42 l 0.06 -0.06 l 0.7 0.72 l -0.06 0.05 Z M 84.33 15 l 0.7 -0.71 l 0.06 0 l -0.71 0.72 Z M 16 13.36 L 16 13.3 l 0.68 0.74 l -0.06 0.06 Z M 83.24 14 l 0.69 -0.74 l 0.06 0.06 l -0.69 0.74 Z M 17.1 12.34 l 0.06 -0.06 l 0.66 0.76 l -0.06 0.06 Z m 65 0.67 l 0.66 -0.76 l 0.06 0.05 l -0.66 0.76 Z M 18.26 11.35 l 0.07 0 l 0.64 0.78 l -0.07 0.05 Z M 81 12 l 0.64 -0.78 l 0.06 0.06 l -0.64 0.78 Z M 19.46 10.4 l 0.06 -0.05 l 0.62 0.8 l -0.07 0 Z m 60.36 0.72 l 0.61 -0.8 l 0.07 0 l -0.62 0.8 Z M 20.68 9.49 l 0.07 -0.05 l 0.59 0.81 l -0.07 0.05 Z m 57.94 0.74 l 0.59 -0.82 l 0.07 0.05 l -0.59 0.81 Z M 21.93 8.61 l 0.07 0 l 0.56 0.84 l -0.07 0 Z m 55.47 0.76 L 78 8.54 l 0.07 0 l -0.56 0.84 Z M 23.2 7.77 l 0.08 0 l 0.54 0.85 l -0.08 0 Z m 53 0.78 l 0.54 -0.85 l 0.07 0 l -0.54 0.85 Z M 24.51 7 l 0.07 0 l 0.51 0.87 l -0.07 0 Z m 50.37 0.81 l 0.51 -0.87 l 0.07 0 L 75 7.82 Z m -49 -1.57 l 0.08 0 l 0.48 0.88 l -0.07 0 Z M 73.58 7 l 0.49 -0.88 l 0.07 0 l -0.49 0.88 Z M 27.18 5.49 l 0.07 0 l 0.46 0.89 l -0.07 0 Z m 45.08 0.85 l 0.46 -0.9 l 0.08 0 l -0.46 0.9 Z M 28.55 4.82 l 0.08 0 l 0.43 0.91 l -0.08 0 Z m 42.38 0.86 l 0.43 -0.91 l 0.07 0 L 71 5.72 Z m -41 -1.5 l 0.08 0 l 0.4 0.92 l -0.08 0 Z m 39.63 0.89 l 0.4 -0.93 l 0.08 0 l -0.4 0.92 Z M 31.35 3.59 l 0.08 0 l 0.37 0.93 l -0.08 0 Z m 36.85 0.9 l 0.37 -0.93 l 0.08 0 l -0.38 0.93 Z M 66.8 4 l 0.35 -1 l 0.08 0 l -0.35 1 Z M 32.78 3 l 0.08 0 l 0.34 1 l -0.08 0 Z m 32.61 0.43 l 0.31 -1 l 0.09 0 l -0.32 1 Z M 34.22 2.54 l 0.08 0 l 0.32 1 l -0.08 0 Z M 64 3 l 0.29 -1 l 0.08 0 L 64 3 Z M 35.68 2.08 l 0.08 0 L 36 3 L 36 3 Z m 26.84 0.54 l 0.26 -1 l 0.08 0 l -0.26 1 Z m -25.38 -1 l 0.09 0 l 0.25 1 l -0.08 0 Z m 23.93 0.6 l 0.23 -1 l 0.08 0 l -0.22 1 Z m -22.44 -1 h 0.08 l 0.22 1 l -0.08 0 Z m 21 0.65 l 0.2 -1 h 0.08 l -0.2 1 Z M 40.12 1 h 0.08 l 0.2 1 l -0.09 0 Z m 18 0.71 l 0.17 -1 l 0.08 0 l -0.16 1 Z M 41.61 0.69 h 0.09 l 0.16 1 l -0.08 0 Z m 15.06 0.76 l 0.13 -1 l 0.09 0 l -0.14 1 Z M 43.12 0.46 h 0.09 l 0.13 1 h -0.08 Z m 12.06 0.81 l 0.11 -1 h 0.08 l -0.1 1 Z M 44.64 0.28 h 0.08 l 0.11 1 h -0.09 Z m 9 0.86 l 0.08 -1 h 0.08 l -0.07 1 Z m -7.52 -1 h 0.07 l 0.07 1 h -0.08 Z m 6 0.91 l 0 -1 h 0.08 l 0 1 Z m -4.52 -1 h 0.08 l 0.05 1 h -0.09 Z M 49.2 0 h 0.08 l 0 1 h -0.08 Z m 1.51 1 l 0 -1 h 0.08 l 0 1 Z"/>
</svg>