<?xml version="1.0" encoding="UTF-8" standalone="no"?>
<!DOCTYPE svg PUBLIC "-//W3C//DTD SVG 1.1//EN" "http://www.w3.org/Graphics/SVG/1.1/DTD/svg11.dtd">
<svg xmlns="http://www.w3.org/2000/svg" version="1.1" viewBox="0.00 0.00 556.00 449.00">
<g>
<path fill="#d67ab1" d="
  M 223.37 176.85
  C 245.96 153.81 268.98 131.12 291.81 108.32
  Q 295.83 104.30 300.81 106.69
  C 303.15 107.81 305.31 110.48 307.27 112.41
  A 1.65 1.64 -47.5 0 1 307.36 114.67
  C 297.13 126.42 309.92 142.46 323.96 137.49
  Q 326.29 136.66 327.74 135.03
  A 1.41 1.40 42.0 0 1 329.75 134.93
  C 334.20 139.07 339.96 144.43 334.13 150.38
  Q 319.44 165.36 267.83 216.55
  Q 263.92 220.42 262.04 221.17
  C 256.90 223.22 252.29 218.60 249.29 214.65
  Q 248.99 214.25 249.24 213.81
  Q 250.27 212.05 251.20 210.48
  C 259.28 196.75 241.41 182.73 228.98 192.67
  A 1.48 1.48 0.0 0 1 227.11 192.66
  C 221.99 188.41 217.13 183.21 223.37 176.85
  Z
  M 228.91 189.86
  C 242.58 180.38 259.70 193.64 254.35 209.35
  C 253.90 210.68 252.95 212.07 252.26 213.44
  Q 252.02 213.92 252.36 214.34
  C 254.98 217.59 259.35 221.64 263.49 217.47
  Q 279.94 200.94 296.34 184.45
  A 0.57 0.56 45.4 0 0 296.34 183.66
  L 291.39 178.56
  A 0.89 0.89 0.0 0 1 291.46 177.25
  L 291.67 177.07
  Q 292.67 176.25 293.57 177.17
  L 298.20 181.88
  Q 298.59 182.28 298.98 181.88
  Q 314.72 166.17 330.47 150.44
  C 336.03 144.88 334.20 142.64 329.27 137.79
  A 0.88 0.88 0.0 0 0 328.16 137.70
  C 312.62 148.60 293.90 130.17 304.60 114.24
  A 0.98 0.98 0.0 0 0 304.50 113.02
  C 301.38 109.73 297.83 105.93 293.40 110.39
  Q 277.01 126.90 260.56 143.20
  A 0.87 0.86 45.2 0 0 260.56 144.43
  L 265.32 149.18
  A 1.04 1.04 0.0 0 1 265.37 150.60
  L 265.12 150.87
  A 0.89 0.89 0.0 0 1 263.83 150.92
  L 258.63 145.84
  A 0.68 0.68 0.0 0 0 257.68 145.85
  Q 241.55 162.11 225.30 178.31
  C 220.78 182.82 223.80 186.76 227.57 189.81
  A 1.12 1.11 -42.8 0 0 228.91 189.86
  Z"
/>
<rect x="-1.21" y="-5.09" transform="translate(272.83,158.25) rotate(-44.6)" width="2.42" height="10.18" rx="1.16" />
<rect x="-5.20" y="-1.13" transform="translate(284.02,169.51) rotate(45.0)" width="10.40" height="2.26" rx="1.10"/>
<path fill="#ffffff" d="
  M 192.45 265.05
  L 193.69 264.35
  A 1.97 1.97 0.0 0 0 194.69 262.62
  L 194.62 253.81
  A 1.55 1.54 -0.6 0 1 196.15 252.26
  Q 204.71 252.19 213.72 252.27
  C 224.62 252.36 228.40 267.02 218.46 271.27
  Q 216.37 272.16 211.98 272.13
  Q 203.96 272.07 196.00 272.22
  Q 191.92 272.29 190.06 274.88
  Q 188.87 276.53 189.25 274.53
  C 190.05 270.31 193.54 269.83 197.50 269.82
  Q 204.60 269.79 211.70 269.71
  Q 215.99 269.67 217.68 268.82
  C 224.75 265.24 221.62 254.75 213.49 254.90
  Q 205.66 255.04 197.89 254.87
  A 0.65 0.64 -89.1 0 0 197.23 255.52
  L 197.20 262.50
  Q 197.20 263.83 198.50 264.04
  L 198.94 264.11
  A 1.10 1.10 0.0 0 0 200.21 263.06
  L 200.32 259.15
  A 1.19 1.18 -89.0 0 1 201.50 258.00
  L 215.09 258.07
  A 3.38 3.38 0.0 0 1 218.46 261.34
  L 218.49 262.27
  Q 218.63 266.43 214.47 266.45
  Q 204.66 266.51 196.00 266.49
  Q 191.79 266.48 189.42 269.75
  Q 189.10 270.19 189.08 269.65
  Q 188.56 255.79 189.05 252.25
  C 189.66 247.82 193.53 246.74 197.71 246.73
  Q 205.98 246.72 214.25 246.76
  C 225.93 246.81 233.32 258.53 228.30 269.04
  C 223.42 279.26 212.78 278.31 203.42 277.99
  A 0.52 0.51 -88.4 0 0 202.89 278.50
  C 202.87 284.16 204.87 295.93 195.58 295.43
  C 192.52 295.27 189.01 292.37 188.98 289.26
  C 188.93 283.27 187.98 275.52 196.50 275.56
  Q 208.67 275.61 213.50 275.44
  C 231.75 274.81 231.22 249.81 215.00 249.42
  Q 205.35 249.19 196.24 249.24
  Q 191.45 249.27 191.44 254.05
  L 191.41 264.45
  Q 191.41 265.64 192.45 265.05
  Z
  M 202.89 261.34
  L 202.89 263.22
  A 0.70 0.70 0.0 0 0 203.59 263.92
  L 213.94 263.92
  A 1.99 1.51 0.0 0 0 215.93 262.41
  L 215.93 262.15
  A 1.99 1.51 -0.0 0 0 213.94 260.64
  L 203.59 260.64
  A 0.70 0.70 0.0 0 0 202.89 261.34
  Z
  M 196.26 289.82
  L 195.84 289.80
  Q 194.69 289.75 194.69 288.59
  L 194.73 279.52
  A 0.83 0.83 0.0 0 0 193.51 278.79
  L 193.18 278.98
  Q 191.79 279.73 191.61 281.30
  Q 190.89 287.60 191.61 289.54
  C 193.45 294.52 200.27 293.11 200.27 288.76
  Q 200.28 283.71 200.26 279.12
  Q 200.26 277.87 199.00 277.90
  L 198.49 277.91
  Q 197.18 277.94 197.17 279.26
  L 197.12 288.99
  A 0.84 0.83 -88.7 0 1 196.26 289.82
  Z"
/>
<path fill="#ffffff" d="
  M 246.81 249.81
  C 248.24 246.71 253.55 246.11 256.28 247.59
  C 259.10 249.11 261.46 254.92 262.33 257.73
  C 264.09 263.43 258.90 266.47 254.05 266.47
  C 249.05 266.48 244.10 266.18 239.18 267.23
  Q 238.50 267.38 238.80 266.74
  Q 242.90 258.29 246.81 249.81
  Z
  M 250.54 249.90
  C 247.77 251.71 244.83 259.74 243.54 262.78
  Q 242.98 264.09 244.40 264.02
  L 245.05 263.99
  Q 246.70 263.91 247.30 262.38
  Q 249.08 257.85 251.41 253.43
  Q 251.99 252.34 253.01 252.48
  A 1.35 1.34 81.3 0 1 254.04 253.24
  L 258.08 261.84
  A 0.88 0.87 -41.9 0 0 259.62 261.92
  L 259.88 261.48
  Q 260.67 260.17 260.09 258.76
  C 258.73 255.42 255.89 246.38 250.54 249.90
  Z
  M 249.66 263.10
  A 0.57 0.57 0.0 0 0 250.17 263.92
  L 255.34 263.97
  A 0.57 0.57 0.0 0 0 255.87 263.17
  L 253.34 257.48
  A 0.57 0.57 0.0 0 0 252.30 257.47
  L 249.66 263.10
  Z"
/>
<path fill="#ffffff" d="
  M 308.12 279.74
  L 308.10 279.38
  A 1.26 1.26 0.0 0 0 306.89 278.19
  C 298.30 277.88 291.42 278.40 286.76 270.06
  Q 284.67 266.32 285.38 263.16
  C 286.37 258.73 290.23 258.04 294.47 258.06
  Q 304.86 258.09 315.94 257.95
  A 3.52 3.51 -88.3 0 0 319.40 254.68
  L 319.47 253.60
  A 4.09 4.09 0.0 0 0 315.34 249.22
  L 292.99 249.44
  Q 291.20 249.46 292.73 248.54
  Q 295.61 246.80 299.75 246.75
  Q 311.82 246.62 315.26 246.70
  C 322.79 246.89 324.59 257.38 317.78 259.97
  C 313.75 261.50 304.97 260.59 300.14 260.57
  A 1.42 1.41 -89.2 0 0 298.73 261.95
  L 298.72 262.38
  Q 298.67 264.13 300.42 264.15
  C 303.96 264.18 307.88 263.87 311.06 264.87
  C 317.66 266.94 326.08 276.11 318.91 282.65
  Q 317.71 283.74 315.49 283.80
  Q 304.35 284.09 291.73 284.11
  Q 287.60 284.12 287.49 288.24
  L 287.47 289.26
  A 3.31 3.30 -88.2 0 0 290.65 292.66
  Q 302.03 293.11 313.45 292.35
  Q 316.72 292.13 313.82 293.67
  C 308.65 296.40 300.30 295.46 294.62 295.44
  Q 290.16 295.42 288.30 294.57
  C 283.93 292.56 283.47 285.30 287.56 282.71
  Q 289.41 281.54 293.31 281.51
  Q 299.84 281.46 306.44 281.49
  Q 308.20 281.50 308.12 279.74
  Z
  M 306.00 266.72
  C 302.84 266.55 294.74 267.67 296.27 261.52
  Q 296.52 260.49 295.45 260.52
  L 293.96 260.57
  Q 292.94 260.61 292.93 261.62
  Q 292.88 267.05 297.43 269.15
  C 299.58 270.14 302.46 269.81 304.92 269.86
  C 311.67 270.00 316.24 272.87 316.36 280.41
  A 0.43 0.43 0.0 0 0 317.07 280.73
  C 322.34 276.38 315.62 269.34 311.38 267.66
  Q 309.49 266.91 306.00 266.72
  Z
  M 300.84 275.60
  C 304.20 275.69 311.61 274.53 310.50 280.65
  A 0.72 0.72 0.0 0 0 311.23 281.50
  L 313.21 281.47
  A 0.74 0.74 0.0 0 0 313.94 280.72
  Q 313.84 274.47 308.45 272.79
  C 305.50 271.87 301.15 272.86 298.46 272.13
  Q 290.67 270.03 290.47 262.82
  Q 290.39 259.83 288.67 262.27
  C 285.44 266.85 291.46 272.85 295.33 274.60
  Q 297.34 275.51 300.84 275.60
  Z"
/>
<path fill="#ffffff" d="
  M 344.50 261.97
  L 344.49 262.36
  A 1.80 1.79 0.8 0 0 346.29 264.20
  C 349.69 264.19 353.43 263.93 356.45 264.77
  C 363.69 266.80 371.99 276.31 364.16 283.13
  Q 363.68 283.55 362.26 283.84
  Q 361.41 284.02 360.24 284.02
  Q 349.63 284.04 337.47 284.12
  Q 333.39 284.15 333.26 288.22
  L 333.23 289.18
  A 3.37 3.37 0.0 0 0 336.45 292.65
  Q 347.99 293.15 359.54 292.38
  Q 362.10 292.21 359.86 293.45
  C 354.69 296.31 347.05 295.44 341.21 295.45
  Q 336.65 295.45 334.89 294.79
  C 327.31 291.95 329.88 281.54 338.32 281.51
  Q 344.91 281.49 352.12 281.49
  Q 353.77 281.49 353.87 279.83
  L 353.89 279.42
  A 1.24 1.23 -88.7 0 0 352.64 278.11
  C 344.79 278.24 338.35 278.37 333.32 271.21
  C 331.44 268.53 330.16 265.75 331.31 262.52
  Q 332.90 258.04 338.00 258.06
  Q 349.39 258.10 361.87 257.98
  A 3.42 3.41 1.1 0 0 365.24 254.74
  L 365.30 253.60
  A 4.18 4.17 1.2 0 0 361.09 249.21
  L 339.31 249.42
  Q 336.74 249.44 339.01 248.25
  Q 341.73 246.82 345.50 246.76
  Q 358.52 246.58 362.00 246.76
  C 369.58 247.14 370.09 260.42 360.57 260.53
  Q 353.42 260.62 345.95 260.57
  A 1.44 1.43 0.8 0 0 344.50 261.97
  Z
  M 356.27 267.30
  C 352.79 266.21 340.55 268.64 342.05 261.71
  Q 342.33 260.45 341.04 260.53
  L 339.82 260.59
  Q 338.50 260.67 338.63 261.98
  Q 339.40 269.86 347.26 269.81
  C 354.99 269.76 361.97 270.66 362.07 280.26
  A 0.54 0.54 0.0 0 0 362.97 280.66
  C 368.48 275.80 360.87 268.73 356.27 267.30
  Z
  M 346.82 275.53
  C 350.26 275.53 357.51 274.81 356.44 280.78
  Q 356.32 281.49 357.03 281.49
  L 358.79 281.51
  Q 359.60 281.51 359.62 280.71
  C 359.90 269.25 348.77 273.89 342.69 271.61
  Q 336.44 269.27 336.28 262.01
  A 0.57 0.57 0.0 0 0 335.38 261.56
  C 329.89 265.54 337.53 272.94 341.31 274.66
  Q 343.24 275.53 346.82 275.53
  Z"
/>
<path fill="#ffffff" d="
  M 315.34 252.33
  A 0.98 0.98 0.0 0 1 316.29 253.21
  L 316.33 253.56
  A 1.28 1.28 0.0 0 1 315.04 254.97
  Q 303.68 254.84 292.50 254.94
  Q 288.82 254.97 286.34 256.41
  Q 285.93 256.65 286.00 256.18
  C 286.44 253.21 291.22 252.36 293.77 252.32
  Q 304.56 252.15 315.34 252.33
  Z"
/>
<path fill="#ffffff" d="
  M 361.10 254.86
  C 353.35 254.92 345.53 254.95 337.74 254.91
  Q 334.62 254.89 331.96 256.61
  Q 331.34 257.02 331.65 256.35
  Q 333.44 252.51 337.77 252.33
  Q 342.63 252.13 360.71 252.30
  Q 361.95 252.31 362.02 253.55
  L 362.04 253.87
  A 0.94 0.94 0.0 0 1 361.10 254.86
  Z"
/>
<path fill="#ffffff" d="
  M 265.26 267.52
  C 263.75 271.19 260.70 272.05 256.73 272.11
  C 250.51 272.20 242.61 271.19 236.85 273.39
  Q 235.07 274.07 236.34 272.65
  Q 238.80 269.94 243.25 269.83
  Q 250.50 269.65 257.74 269.52
  Q 262.45 269.44 264.31 266.84
  Q 267.20 262.82 265.26 267.52
  Z"
/>
<path fill="#ffffff" d="
  M 249.47 277.87
  A 0.94 0.92 11.4 0 0 248.61 278.43
  C 246.96 282.19 243.34 292.13 240.10 294.30
  C 236.22 296.89 230.66 294.79 229.65 290.26
  Q 229.15 287.99 230.23 285.31
  C 233.02 278.45 235.00 275.70 243.25 275.73
  Q 251.00 275.75 258.75 275.47
  Q 264.47 275.26 268.05 271.26
  A 0.53 0.52 -37.3 0 1 268.91 271.37
  Q 272.50 278.58 275.63 285.64
  C 278.50 292.09 270.61 298.17 265.13 293.91
  Q 263.35 292.54 261.59 288.53
  Q 259.31 283.38 256.86 278.30
  A 0.90 0.89 -13.5 0 0 256.04 277.80
  L 249.47 277.87
  Z
  M 269.44 289.69
  A 0.91 0.91 0.0 0 1 268.26 289.24
  L 262.96 278.03
  Q 262.61 277.28 261.79 277.42
  L 260.28 277.68
  Q 259.27 277.86 259.72 278.78
  L 265.73 291.13
  A 3.53 3.52 65.3 0 0 270.30 292.82
  L 271.30 292.39
  A 4.23 4.22 -24.5 0 0 273.43 286.70
  L 267.65 274.57
  A 0.64 0.63 55.4 0 0 266.64 274.38
  L 265.46 275.50
  Q 264.86 276.07 265.21 276.82
  L 270.35 287.97
  Q 270.87 289.08 269.74 289.56
  L 269.44 289.69
  Z
  M 236.98 289.39
  Q 232.85 291.15 239.09 279.83
  Q 239.89 278.38 238.31 278.88
  L 237.50 279.14
  A 4.08 4.05 -82.2 0 0 235.29 280.83
  Q 231.90 286.10 231.93 288.00
  C 232.03 292.97 238.38 294.83 240.32 290.51
  Q 243.07 284.38 245.86 278.77
  Q 246.35 277.76 245.23 277.75
  L 243.95 277.74
  Q 242.70 277.73 242.18 278.87
  L 237.70 288.69
  A 1.38 1.36 0.4 0 1 236.98 289.39
  Z"
/>
<path fill="#ffffff" d="
  M 314.90 287.10
  C 317.24 287.09 318.60 286.39 320.57 285.36
  Q 321.11 285.08 320.86 285.63
  C 319.40 288.80 316.91 289.67 313.37 289.70
  Q 302.37 289.82 291.75 289.74
  Q 290.47 289.73 290.45 288.45
  L 290.44 288.04
  A 0.90 0.90 0.0 0 1 291.34 287.13
  Q 303.15 287.16 314.90 287.10
  Z"
/>
<path fill="#ffffff" d="
  M 361.38 287.13
  Q 363.59 287.12 366.13 285.50
  Q 366.59 285.20 366.39 285.71
  Q 364.89 289.65 361.15 289.68
  Q 349.43 289.79 337.77 289.74
  Q 336.53 289.74 336.40 288.50
  L 336.36 288.14
  A 0.90 0.90 0.0 0 1 337.26 287.15
  Q 349.30 287.18 361.38 287.13
  Z"
/>
<path  fill="#d67ab1" d="
  M 305.77 327.71
  C 303.78 328.45 302.43 330.75 300.12 329.78
  A 0.96 0.95 -82.7 0 1 299.53 329.01
  L 299.39 328.02
  Q 299.30 327.34 298.77 327.78
  Q 297.10 329.18 295.22 330.16
  Q 293.60 331.01 292.93 330.25
  Q 291.95 329.16 292.76 327.92
  Q 295.75 323.36 300.72 320.92
  A 0.51 0.50 67.8 0 1 301.43 321.22
  L 301.53 321.57
  A 0.87 0.86 68.8 0 1 301.08 322.61
  Q 297.47 324.36 294.89 327.39
  Q 293.26 329.30 295.51 328.17
  Q 298.53 326.65 301.59 323.61
  Q 302.07 323.13 302.47 323.67
  L 302.73 324.01
  A 0.42 0.42 0.0 0 1 302.74 324.50
  Q 301.61 326.11 301.29 328.05
  A 0.55 0.55 0.0 0 0 302.09 328.62
  L 306.33 326.38
  Q 306.81 326.13 307.00 325.62
  L 313.55 308.27
  Q 314.62 305.42 315.70 308.34
  Q 315.98 309.11 314.97 311.17
  Q 310.08 321.15 307.34 331.57
  Q 307.20 332.09 306.77 331.77
  L 306.37 331.47
  A 0.93 0.91 -67.5 0 1 306.01 330.58
  L 306.40 328.24
  Q 306.54 327.42 305.77 327.71
  Z"
/>
<path fill="#d67ab1" d="
  M 270.28 310.46
  A 2.44 2.39 -15.6 0 0 268.77 309.63
  Q 261.52 308.61 254.51 311.31
  C 252.47 312.10 252.36 312.97 251.36 315.18
  Q 246.29 326.38 243.22 338.50
  Q 243.01 339.32 242.17 339.41
  L 241.77 339.45
  Q 240.96 339.53 241.10 338.73
  C 242.54 330.67 246.48 319.86 250.20 311.43
  A 3.23 3.22 -89.7 0 1 251.86 309.78
  Q 259.31 306.53 267.96 307.41
  C 273.90 308.02 273.08 313.41 269.14 316.13
  Q 259.47 322.82 248.52 327.10
  Q 248.12 327.26 247.65 326.82
  Q 247.34 326.53 247.67 326.26
  C 254.44 320.76 265.16 319.30 270.23 311.55
  Q 270.65 310.90 270.28 310.46
  Z"
/>
<path fill="#d67ab1" d="
  M 290.26 318.84
  L 287.30 319.80
  A 0.38 0.37 -8.4 0 1 286.81 319.44
  L 286.82 318.92
  A 0.85 0.84 -5.6 0 1 287.49 318.11
  L 290.92 317.41
  Q 291.45 317.30 291.67 316.80
  L 295.35 308.28
  Q 295.77 307.30 296.83 307.49
  L 297.24 307.57
  A 0.69 0.68 17.3 0 1 297.74 308.52
  L 294.51 315.68
  A 0.44 0.43 10.2 0 0 294.94 316.29
  L 300.01 316.01
  Q 300.24 316.00 300.26 316.23
  L 300.29 316.59
  A 0.43 0.42 85.0 0 1 299.92 317.04
  L 294.17 317.88
  Q 293.65 317.96 293.46 318.45
  Q 290.96 325.05 289.07 331.80
  Q 288.91 332.35 288.60 332.49
  Q 288.39 332.58 288.15 332.52
  Q 287.64 332.41 287.66 331.89
  C 287.78 328.26 289.17 324.48 290.79 319.36
  Q 291.03 318.60 290.26 318.84
  Z"
/>
<path fill="#d67ab1" d="
  M 283.33 323.30
  Q 285.53 322.09 288.02 321.99
  Q 289.44 321.94 288.18 322.61
  C 284.92 324.37 281.38 325.21 280.56 329.85
  Q 280.39 330.79 279.44 330.87
  L 278.94 330.91
  A 0.59 0.59 0.0 0 1 278.34 330.13
  L 280.22 324.82
  Q 280.79 323.18 279.09 323.54
  L 277.48 323.88
  Q 275.63 324.28 275.21 326.13
  Q 274.58 328.88 270.99 330.69
  C 269.32 331.53 266.63 330.91 266.89 328.62
  C 267.17 326.24 269.02 323.37 270.84 321.85
  Q 271.23 321.52 271.74 321.57
  Q 273.26 321.72 274.58 322.47
  Q 275.03 322.73 275.55 322.70
  Q 279.12 322.53 282.43 321.26
  A 0.61 0.61 0.0 0 1 283.23 322.01
  L 282.93 322.97
  Q 282.73 323.63 283.33 323.30
  Z
  M 269.3584 329.4327
  A 3.85 1.38 121.5 0 0 272.5466 326.8710
  A 3.85 1.38 121.5 0 0 273.3816 322.8673
  A 3.85 1.38 121.5 0 0 270.1934 325.4290
  A 3.85 1.38 121.5 0 0 269.3584 329.4327
  Z"
/>
</g>
</svg>
