<?xml version="1.0" encoding="UTF-8" standalone="no"?>
<!DOCTYPE svg PUBLIC "-//W3C//DTD SVG 1.1//EN" "http://www.w3.org/Graphics/SVG/1.1/DTD/svg11.dtd">
<svg xmlns="http://www.w3.org/2000/svg" version="1.1" viewBox="0.00 0.00 439.00 234.00">
<path fill="#ffffff" d="
  M 50.56 56.55
  Q 50.56 57.16 51.17 57.14
  L 55.34 57.01
  Q 55.70 56.99 55.73 56.65
  L 56.87 46.06
  A 0.64 0.63 -87.0 0 1 57.50 45.49
  Q 71.59 45.47 85.25 45.49
  C 94.45 45.51 95.63 61.17 87.97 61.99
  Q 75.05 63.39 62.08 62.93
  C 56.31 62.73 50.20 62.86 45.75 63.24
  C 40.75 63.67 37.59 66.30 33.67 69.52
  Q 33.18 69.92 33.19 69.30
  Q 33.22 53.87 33.18 38.51
  C 33.15 28.14 39.34 22.84 49.25 22.65
  Q 71.58 22.21 85.50 22.84
  C 119.74 24.39 128.13 70.59 96.18 83.48
  C 85.99 87.58 73.16 86.36 62.47 86.18
  A 0.72 0.72 0.0 0 0 61.74 86.95
  Q 62.52 98.50 61.72 109.51
  Q 61.44 113.36 56.91 117.42
  C 50.53 123.13 41.25 122.32 36.37 115.44
  C 31.99 109.26 32.40 97.20 34.30 90.50
  C 35.87 84.94 40.56 81.84 46.23 81.27
  C 59.78 79.93 73.16 81.67 86.73 80.22
  C 98.42 78.96 106.96 71.50 109.66 60.15
  C 112.54 48.05 105.61 34.16 93.84 30.00
  Q 89.10 28.32 76.47 28.28
  Q 64.02 28.25 51.57 28.33
  C 44.90 28.37 39.24 29.51 38.84 37.00
  Q 38.57 41.84 38.80 59.57
  A 0.19 0.19 0.0 0 0 39.07 59.74
  L 44.66 57.26
  Q 44.98 57.11 44.98 56.76
  L 44.96 35.01
  A 0.28 0.28 0.0 0 1 45.22 34.73
  Q 60.91 33.53 76.66 33.68
  Q 87.72 33.78 92.11 35.50
  C 102.01 39.37 107.25 50.76 103.27 61.16
  Q 98.33 74.06 84.25 74.22
  C 72.91 74.35 61.55 73.89 50.23 74.21
  C 43.36 74.40 38.56 76.10 34.16 80.95
  Q 32.95 82.29 33.36 80.53
  C 34.64 75.04 38.41 70.20 44.46 69.76
  C 49.06 69.43 53.57 68.93 58.19 68.97
  Q 75.19 69.13 86.12 68.66
  Q 89.52 68.51 92.68 65.94
  Q 103.82 56.89 95.71 45.34
  C 93.04 41.53 88.86 40.24 83.98 40.09
  Q 67.55 39.59 51.14 39.88
  Q 50.56 39.89 50.56 40.47
  L 50.56 56.55
  Z
  M 85.99 56.95
  A 2.15 2.15 0.0 0 0 87.85 53.88
  L 87.08 52.26
  A 2.15 2.15 0.0 0 0 85.18 51.03
  L 63.95 50.60
  A 2.15 2.15 0.0 0 0 61.75 52.74
  L 61.75 55.66
  A 2.15 2.15 0.0 0 0 63.98 57.81
  L 85.99 56.95
  Z
  M 47.16 110.21
  C 44.76 102.68 44.82 94.84 45.01 87.05
  A 0.59 0.59 0.0 0 0 44.07 86.56
  C 36.55 92.19 38.09 99.48 38.84 107.50
  C 39.58 115.37 49.11 118.09 53.83 112.61
  C 58.02 107.74 56.69 92.12 55.84 86.08
  Q 55.71 85.19 54.83 85.40
  L 51.08 86.31
  Q 50.25 86.51 50.22 87.37
  C 50.02 94.47 51.12 103.80 47.89 110.26
  A 0.40 0.39 -41.0 0 1 47.16 110.21
  Z"
/>
<path fill="#ffffff" d="
  M 255.12 52.50
  L 255.27 56.25
  Q 255.32 57.49 256.56 57.48
  C 263.74 57.44 271.96 56.99 278.97 59.21
  C 288.93 62.37 296.96 69.93 300.04 80.16
  C 302.22 87.40 298.05 94.96 291.05 97.43
  Q 288.77 98.23 283.85 98.24
  Q 264.80 98.28 245.75 98.31
  C 242.45 98.32 237.52 98.17 234.90 100.20
  C 232.00 102.44 230.89 106.31 232.13 109.77
  C 233.69 114.16 238.47 115.48 243.00 115.47
  Q 256.00 115.44 268.99 115.29
  C 274.56 115.23 281.14 114.49 287.03 114.49
  Q 289.75 114.49 287.38 115.84
  Q 278.49 120.88 269.00 121.03
  Q 255.78 121.24 242.56 121.06
  C 236.91 120.98 231.00 119.61 227.91 114.34
  C 223.54 106.87 226.14 97.75 233.98 93.99
  C 236.29 92.89 241.73 92.49 245.05 92.52
  Q 255.02 92.60 265.00 92.52
  C 266.50 92.51 270.62 92.39 272.40 91.12
  Q 272.77 90.86 272.83 90.40
  Q 273.33 86.36 269.71 86.32
  C 255.58 86.17 244.42 87.20 234.15 75.62
  C 228.33 69.05 223.37 59.52 229.30 51.57
  Q 233.81 45.51 241.50 45.50
  Q 264.37 45.48 287.25 45.49
  C 291.34 45.49 294.52 41.92 296.34 37.97
  A 1.11 1.09 -42.8 0 0 296.38 37.14
  C 294.67 32.36 291.74 28.15 286.50 28.19
  C 270.79 28.30 254.89 27.99 239.21 28.88
  Q 238.52 28.92 239.06 28.48
  C 244.45 24.15 252.07 22.57 258.75 22.54
  Q 271.87 22.49 284.99 22.63
  C 291.07 22.69 295.92 23.87 299.27 29.17
  Q 302.11 33.66 301.22 39.25
  C 299.83 47.98 292.36 51.32 284.14 51.27
  Q 270.36 51.19 256.36 51.21
  Q 255.07 51.22 255.12 52.50
  Z
  M 258.50 69.49
  C 268.96 69.16 282.52 68.94 287.23 79.74
  Q 288.92 83.62 290.07 90.33
  Q 290.60 93.41 292.14 90.69
  L 294.28 86.91
  Q 295.94 83.98 294.73 80.84
  Q 288.87 65.61 272.74 63.44
  C 266.08 62.54 252.57 65.64 249.84 57.29
  Q 248.84 54.22 248.30 51.35
  A 1.24 1.24 0.0 0 0 246.73 50.39
  L 242.97 51.52
  A 0.86 0.85 81.7 0 0 242.35 52.36
  C 242.42 61.65 248.60 69.80 258.50 69.49
  Z
  M 277.71 77.16
  C 275.39 75.61 270.84 74.20 268.26 74.29
  C 249.40 74.91 241.18 72.04 236.41 52.87
  A 0.65 0.64 70.6 0 0 235.52 52.44
  Q 234.99 52.69 234.64 53.37
  Q 233.27 56.04 232.24 58.46
  A 3.18 3.16 50.6 0 0 232.06 60.36
  Q 233.70 68.17 239.73 73.77
  C 248.57 82.01 258.57 81.31 269.74 81.32
  Q 274.74 81.33 276.46 84.78
  Q 277.24 86.33 278.14 91.32
  Q 278.41 92.80 279.91 92.82
  L 284.27 92.87
  Q 285.84 92.89 285.32 91.41
  C 284.45 88.91 284.47 86.08 283.43 83.86
  Q 281.47 79.68 277.71 77.16
  Z"
/>
<path fill="#ffffff" d="
  M 345.98 54.09
  C 347.73 56.56 350.13 57.58 353.34 57.48
  C 369.34 57.00 385.41 61.13 391.26 77.82
  C 393.89 85.31 392.00 93.49 384.43 96.85
  Q 381.24 98.26 374.39 98.26
  Q 353.56 98.24 332.76 98.26
  Q 326.44 98.27 324.37 103.51
  C 321.20 111.54 328.16 115.55 335.00 115.52
  Q 350.53 115.45 366.05 115.30
  C 370.40 115.26 375.53 114.78 380.29 114.58
  Q 381.00 114.56 380.43 114.97
  Q 373.20 120.27 364.25 120.70
  Q 348.63 121.44 333.00 121.03
  C 322.71 120.76 314.81 111.75 319.01 101.49
  C 321.69 94.94 328.03 92.39 334.91 92.48
  Q 345.33 92.62 355.75 92.72
  Q 359.60 92.76 364.52 91.09
  A 1.00 0.98 -1.9 0 0 365.15 90.43
  C 365.65 88.70 364.80 87.48 363.02 87.09
  C 358.15 86.05 354.12 86.23 348.26 85.99
  C 334.09 85.42 321.04 74.74 318.54 60.76
  C 317.58 55.36 322.14 49.14 326.68 46.95
  Q 329.70 45.50 336.55 45.49
  Q 356.23 45.47 375.90 45.49
  C 381.92 45.49 386.17 44.75 387.89 38.70
  C 388.81 35.45 384.46 28.25 380.86 28.27
  C 364.70 28.34 348.19 27.81 332.08 28.82
  Q 330.23 28.94 331.79 27.94
  C 338.85 23.43 344.58 22.63 353.69 22.57
  Q 372.43 22.45 378.25 22.61
  Q 389.45 22.93 392.50 31.90
  C 395.07 39.48 391.95 46.55 384.72 49.93
  Q 381.89 51.26 374.25 51.21
  Q 364.56 51.15 354.87 51.18
  C 351.98 51.19 349.37 52.12 346.52 52.72
  A 0.88 0.88 0.0 0 0 345.98 54.09
  Z
  M 372.82 65.42
  C 366.29 62.75 360.62 63.28 354.17 63.25
  C 345.68 63.20 341.80 60.42 341.00 51.87
  Q 340.88 50.53 339.54 50.66
  L 335.31 51.09
  A 1.20 1.19 82.6 0 0 334.26 52.46
  C 335.48 60.20 337.88 66.28 345.15 68.61
  Q 347.26 69.28 352.92 69.39
  C 361.81 69.55 374.41 69.34 378.75 78.99
  Q 381.36 84.78 382.10 90.32
  Q 382.54 93.55 384.29 90.81
  L 386.39 87.52
  A 7.33 7.33 0.0 0 0 387.27 81.63
  C 385.29 74.45 379.41 68.10 372.82 65.42
  Z
  M 341.06 72.17
  C 333.21 68.85 330.73 61.32 329.27 53.38
  Q 328.84 51.01 327.49 53.00
  L 324.64 57.20
  A 4.38 4.38 0.0 0 0 324.08 60.97
  C 328.34 74.63 339.23 81.38 353.30 81.28
  Q 358.93 81.24 364.53 81.97
  C 366.77 82.27 367.52 82.85 368.41 84.81
  Q 370.04 88.37 371.19 91.68
  A 2.35 2.34 81.7 0 0 373.30 93.26
  Q 377.16 93.41 376.84 89.76
  C 374.99 68.01 353.75 77.53 341.06 72.17
  Z"
/>
<path fill="#ffffff" d="
  M 133.38 63.74
  C 137.92 54.18 142.46 44.66 146.90 35.07
  Q 149.98 28.41 152.33 26.28
  C 158.89 20.34 169.56 21.98 174.31 29.69
  Q 179.38 37.91 181.79 47.20
  C 183.66 54.43 177.02 60.98 170.51 62.08
  C 161.96 63.51 152.40 62.98 143.59 63.18
  C 140.58 63.25 137.14 64.10 133.78 64.32
  A 0.41 0.41 0.0 0 1 133.38 63.74
  Z
  M 162.76 33.85
  L 173.75 55.08
  Q 174.05 55.65 174.61 55.34
  C 177.26 53.85 176.66 47.42 175.86 45.03
  C 174.27 40.30 169.73 30.20 165.51 28.66
  Q 158.16 25.98 154.00 32.75
  Q 150.76 38.02 142.36 57.43
  A 0.19 0.19 0.0 0 0 142.55 57.70
  L 148.94 57.25
  A 0.49 0.47 -79.3 0 0 149.34 56.97
  C 153.51 48.06 157.03 40.10 161.97 33.77
  Q 162.42 33.19 162.76 33.85
  Z
  M 155.19 56.70
  A 0.47 0.47 0.0 0 0 155.61 57.38
  L 167.99 57.44
  A 0.47 0.47 0.0 0 0 168.42 56.78
  L 162.63 43.62
  A 0.47 0.47 0.0 0 0 161.78 43.60
  L 155.19 56.70
  Z"
/>
<path fill="#ffffff" d="
  M 290.16 38.29
  C 285.53 39.62 281.95 40.24 276.86 40.20
  Q 260.31 40.06 243.75 39.84
  Q 236.09 39.74 227.82 42.62
  Q 227.19 42.84 227.57 42.29
  C 232.74 34.87 239.08 33.50 247.67 33.55
  Q 263.09 33.63 278.50 33.60
  C 282.81 33.60 289.12 33.36 290.57 37.49
  Q 290.79 38.10 290.16 38.29
  Z"
/>
<path fill="#ffffff" d="
  M 319.34 42.52
  C 321.37 39.68 325.21 35.73 328.77 35.05
  C 343.23 32.28 358.80 33.74 373.50 33.51
  Q 376.04 33.47 381.33 34.84
  Q 381.88 34.98 382.01 35.53
  Q 382.44 37.41 381.12 38.82
  A 1.13 1.11 19.9 0 1 380.35 39.17
  C 373.86 39.42 367.36 40.09 360.98 39.99
  C 350.82 39.83 340.22 39.44 330.11 40.27
  C 326.54 40.56 323.12 41.84 319.58 42.86
  Q 318.97 43.04 319.34 42.52
  Z"
/>
<path fill="#ffffff" d="
  M 174.57 68.65
  C 179.63 68.22 183.88 63.79 188.27 61.16
  Q 189.06 60.70 188.72 61.54
  C 186.04 68.30 182.28 73.23 174.53 73.71
  C 158.70 74.68 142.73 72.55 127.30 76.90
  Q 126.88 77.02 127.17 76.70
  Q 132.64 70.54 139.74 69.53
  C 150.69 67.97 163.14 69.61 174.57 68.65
  Z"
/>
<path fill="#ffffff" d="
  M 169.22 86.74
  C 165.21 85.22 155.50 83.85 153.22 88.64
  Q 148.43 98.66 143.69 108.69
  C 140.10 116.26 138.09 119.83 129.00 120.92
  C 121.53 121.81 115.98 115.19 115.02 108.70
  C 114.06 102.21 118.92 93.41 122.63 88.15
  C 127.03 81.90 135.07 81.92 142.29 81.07
  Q 145.27 80.72 148.22 80.74
  C 160.30 80.83 168.86 81.43 177.50 79.96
  C 183.66 78.92 188.64 75.90 193.39 72.08
  A 0.68 0.67 -33.2 0 1 194.41 72.29
  Q 200.79 84.32 206.27 97.01
  Q 209.34 104.12 209.11 107.91
  C 208.76 113.78 204.93 118.41 199.28 120.12
  C 188.59 123.36 182.91 115.71 178.97 106.16
  Q 174.97 96.50 169.92 87.35
  Q 169.68 86.91 169.22 86.74
  Z
  M 195.57 109.86
  Q 195.01 110.67 194.52 109.81
  Q 187.55 97.57 181.87 84.65
  Q 181.22 83.16 179.90 84.11
  L 177.50 85.83
  A 2.32 2.32 0.0 0 0 176.69 88.53
  Q 180.49 98.45 185.60 107.37
  C 186.87 109.59 188.43 112.87 190.48 114.32
  C 193.89 116.74 198.68 115.87 201.51 112.83
  Q 205.84 108.19 202.63 101.38
  Q 197.04 89.50 191.59 78.09
  Q 191.18 77.23 190.49 77.90
  L 186.91 81.38
  Q 186.23 82.04 186.64 82.89
  Q 191.34 92.64 195.64 102.79
  C 196.68 105.22 197.02 107.79 195.57 109.86
  Z
  M 126.59 108.21
  Q 125.83 107.82 126.18 107.03
  L 134.95 87.48
  Q 135.66 85.90 134.06 86.59
  C 126.81 89.70 123.06 96.33 121.00 103.62
  Q 119.92 107.43 120.67 109.91
  C 122.17 114.86 129.00 117.22 133.19 114.52
  Q 135.22 113.21 137.59 108.90
  Q 143.85 97.51 148.23 85.72
  Q 148.60 84.72 147.55 84.92
  L 142.48 85.88
  Q 141.43 86.08 140.97 87.05
  L 130.52 109.17
  A 0.94 0.93 -63.4 0 1 129.25 109.60
  L 126.59 108.21
  Z"
/>
<path fill="#ffffff" d="
  M 280.25 103.66
  C 287.83 104.14 293.01 102.64 299.40 100.54
  Q 300.03 100.34 299.67 100.89
  C 295.01 107.94 289.85 109.75 281.50 109.95
  Q 263.00 110.39 244.51 109.75
  Q 241.56 109.65 238.52 108.96
  A 1.48 1.47 -80.6 0 1 237.38 107.36
  C 237.64 104.97 238.22 103.76 240.89 103.71
  Q 271.74 103.13 280.25 103.66
  Z"
/>
<path fill="#ffffff" d="
  M 391.58 101.17
  C 388.44 106.00 383.97 109.36 378.00 109.63
  Q 360.38 110.40 336.50 109.96
  Q 332.89 109.89 330.24 108.78
  A 0.89 0.88 -79.7 0 1 329.70 107.99
  Q 329.63 105.96 330.77 104.25
  Q 331.08 103.79 331.64 103.77
  C 345.88 103.41 360.02 103.67 374.25 103.85
  Q 383.18 103.96 391.25 100.77
  Q 392.03 100.46 391.58 101.17
  Z"
/>
<path fill="#d67ab1" d="
  M 259.74 186.70
  A 0.57 0.57 0.0 0 0 260.52 187.41
  Q 264.92 185.37 268.94 183.68
  Q 270.10 183.19 270.62 181.72
  Q 277.57 162.32 285.17 143.59
  Q 285.62 142.49 286.28 143.48
  L 287.78 145.71
  Q 288.48 146.75 288.16 147.97
  C 285.26 158.92 279.67 168.91 276.14 179.47
  Q 273.52 187.29 271.22 195.03
  Q 270.77 196.57 270.35 195.02
  L 268.37 187.60
  A 0.93 0.92 -20.3 0 0 267.08 187.01
  L 257.89 191.34
  A 0.86 0.85 68.0 0 1 256.72 190.84
  L 255.46 187.06
  A 0.64 0.64 0.0 0 0 254.50 186.72
  C 250.14 189.49 245.95 192.29 240.61 191.29
  Q 239.52 191.09 240.04 190.11
  Q 246.34 178.12 258.39 171.87
  Q 259.03 171.54 259.31 172.20
  L 262.09 178.89
  A 1.31 1.31 0.0 0 1 262.12 179.84
  L 259.74 186.70
  Z
  M 259.15 176.88
  C 254.59 176.22 247.59 183.99 245.67 187.13
  Q 244.51 189.02 246.39 187.84
  Q 253.30 183.53 259.56 178.37
  Q 261.05 177.15 259.15 176.88
  Z"
/>
<path fill="#d67ab1" d="
  M 153.92 158.71
  C 156.32 152.33 158.66 149.54 165.42 147.36
  C 174.47 144.45 192.78 141.41 199.44 148.29
  C 208.85 158.00 184.67 169.82 179.11 172.83
  C 169.53 178.03 160.51 182.40 150.30 185.31
  A 1.46 1.44 -80.0 0 0 149.54 185.85
  Q 148.60 187.18 148.22 188.75
  C 146.36 196.30 145.08 205.23 139.35 210.98
  A 0.37 0.37 0.0 0 1 138.72 210.74
  C 138.47 203.39 141.03 194.61 143.43 187.70
  Q 148.48 173.14 153.92 158.71
  Z
  M 159.85 158.67
  C 156.39 166.62 153.08 174.74 150.01 182.84
  A 0.49 0.48 85.8 0 0 150.70 183.44
  Q 163.61 176.20 177.02 169.13
  C 184.90 164.98 193.33 159.95 198.02 152.10
  A 0.94 0.93 24.8 0 0 197.51 150.73
  C 187.39 147.39 175.87 148.88 166.15 152.75
  C 163.01 154.00 161.14 155.71 159.85 158.67
  Z"
/>
<path fill="#d67ab1" d="
  M 237.25 168.61
  L 229.50 170.01
  A 0.30 0.30 0.0 0 1 229.27 169.47
  Q 232.68 166.84 236.95 164.95
  C 240.90 163.21 242.49 157.75 244.04 153.95
  C 245.99 149.17 247.73 146.40 252.12 144.38
  A 0.31 0.31 0.0 0 1 252.55 144.74
  Q 250.33 153.60 246.14 161.70
  A 0.42 0.41 14.0 0 0 246.51 162.30
  L 258.95 162.48
  Q 259.95 162.49 259.01 162.84
  Q 252.87 165.11 245.99 166.47
  Q 243.62 166.93 242.90 169.31
  C 240.14 178.37 237.77 188.60 232.60 196.52
  Q 231.79 197.75 231.89 196.28
  Q 232.84 182.42 237.99 169.52
  Q 238.44 168.40 237.25 168.61
  Z"
/>
<path fill="#d67ab1" d="
  M 217.24 178.83
  Q 217.94 177.24 216.26 177.68
  L 210.80 179.12
  Q 209.53 179.45 208.86 180.59
  C 204.81 187.55 201.54 192.56 193.17 193.09
  A 1.04 1.03 71.8 0 1 192.23 192.61
  L 189.99 189.20
  Q 189.68 188.73 189.83 188.17
  Q 191.93 180.05 196.49 175.03
  C 198.79 172.51 203.55 174.48 206.47 174.90
  C 211.66 175.65 217.27 174.14 222.17 172.44
  A 0.61 0.60 76.9 0 1 222.97 172.94
  L 223.27 175.37
  A 0.56 0.56 0.0 0 0 223.92 175.86
  L 233.86 174.11
  Q 236.30 173.68 234.16 174.93
  Q 229.79 177.49 224.83 180.58
  C 220.28 183.41 218.16 188.58 216.13 193.25
  A 0.65 0.65 0.0 0 1 214.99 193.34
  C 212.53 189.57 214.92 184.12 217.24 178.83
  Z
  M 203.33 176.26
  C 198.70 174.48 194.91 186.75 193.94 189.57
  A 0.40 0.40 0.0 0 0 194.50 190.06
  Q 201.96 186.42 204.43 178.53
  A 1.85 1.85 0.0 0 0 203.33 176.26
  Z"
/>
</svg>
